<!DOCTYPE svg PUBLIC "-//W3C//DTD SVG 1.1//EN" "http://www.w3.org/Graphics/SVG/1.1/DTD/svg11.dtd">

<!-- Uploaded to: SVG Repo, www.svgrepo.com, Transformed by: SVG Repo Mixer Tools -->
<svg fill="#ababab" width="30px" height="30px" viewBox="0 0 12.00 12.00" xmlns="http://www.w3.org/2000/svg" stroke="#ababab" stroke-width="0.00012000000000000002">

<g id="SVGRepo_bgCarrier" stroke-width="0"/>

<g id="SVGRepo_tracerCarrier" stroke-linecap="round" stroke-linejoin="round"/>

<g id="SVGRepo_iconCarrier"> <path fill-rule="evenodd" d="M12,6 C12,9.313725 9.313725,12 6,12 C2.68629,12 0,9.313725 0,6 C0,2.68629 2.68629,0 6,0 C9.313725,0 12,2.68629 12,6 Z M6.75,3.75 C6.75,4.16421 6.4142175,4.5 6,4.5 C5.58579,4.5 5.25,4.16421 5.25,3.75 C5.25,3.33579 5.58579,3 6,3 C6.4142175,3 6.75,3.33579 6.75,3.75 Z M6,5.25 C5.58579,5.25 5.25,5.58579 5.25,6 L5.25,8.25 C5.25,8.664225 5.58579,9 6,9 C6.4142175,9 6.75,8.664225 6.75,8.25 L6.75,6 C6.75,5.58579 6.4142175,5.25 6,5.25 Z"/> </g>

</svg>